<svg width="422" height="309" viewBox="0 0 422 309" fill="none" xmlns="http://www.w3.org/2000/svg">
<path d="M21.0095 203.178C28.4437 203.178 32.9644 198.758 32.9644 191.223V186.3C29.8501 187.606 26.2335 188.712 22.3155 189.515C16.9911 190.52 14.2786 193.031 14.2786 196.949C14.58 201.169 16.7901 203.178 21.0095 203.178ZM24.1238 170.026C19.4021 170.026 16.7901 171.231 16.0869 173.743H2.72555C4.33293 163.898 11.2648 159.075 23.5211 159.075C38.1884 159.075 45.6226 163.898 45.924 173.743V191.826C45.924 206.493 37.0833 213.023 22.7174 214.028C9.95877 215.032 1.11816 209.105 1.11816 197.351C1.41955 184.593 10.662 181.177 24.1238 179.871C29.8501 179.168 32.7635 177.46 32.7635 174.547C32.4621 171.533 29.6492 170.026 24.1238 170.026Z" fill="#FFF8F0"/>
<path d="M76.4689 202.274C83.7022 202.274 87.5197 197.15 87.9215 186.903C88.022 176.154 84.3049 170.829 76.6699 170.829C69.0348 170.829 65.3177 176.154 65.3177 186.903C65.6191 197.15 69.2357 202.274 76.4689 202.274ZM72.7519 214.028C58.5868 214.028 51.5545 204.785 51.5545 186.501C51.5545 168.82 59.7923 159.98 76.268 159.678C92.8441 159.578 101.182 167.414 101.182 183.387V214.832C101.182 228.193 92.7437 234.924 75.7657 235.225C63.7103 235.225 56.0753 229.599 52.961 218.348H67.7288C68.6329 222.165 71.7473 223.974 77.2726 223.974C84.3049 223.974 87.9215 219.855 87.9215 211.617C87.9215 211.617 87.9215 211.717 87.9215 206.192C84.5058 211.416 79.3823 214.028 72.7519 214.028Z" fill="#FFF8F0"/>
<path d="M107.396 213.023V185.597C107.798 168.418 116.94 159.879 134.722 159.879H136.63V173.743H132.11C124.675 173.743 120.958 177.661 120.958 185.396V213.023H107.396Z" fill="#FFF8F0"/>
<path d="M166.522 159.075C182.595 159.075 190.733 168.217 190.733 186.702C190.733 204.986 182.595 214.229 166.522 214.229C150.448 214.229 142.411 204.986 142.411 186.702C142.411 168.217 150.448 159.075 166.522 159.075ZM166.522 170.829C159.489 170.829 155.973 176.154 155.973 186.702C156.074 197.05 159.59 202.274 166.421 202.274C173.253 202.274 176.668 196.849 176.769 186.3C176.769 175.953 173.353 170.829 166.522 170.829Z" fill="#FFF8F0"/>
<path d="M235.487 159.879H245.834L227.048 213.023H212.883L194.197 159.879H208.965L219.714 197.15L228.957 164.601C229.961 161.487 232.172 159.879 235.487 159.879Z" fill="#FFF8F0"/>
<path d="M250.828 144.709H257.76C262.18 144.709 264.29 146.92 264.19 151.239V155.157H250.828V144.709ZM250.828 159.879H257.76C262.08 159.879 264.19 161.989 264.19 166.309V213.023H250.828V159.879Z" fill="#FFF8F0"/>
<path d="M295.836 202.274C303.069 202.274 306.887 197.15 307.288 186.903C307.389 176.154 303.672 170.829 296.037 170.829C288.402 170.829 284.685 176.154 284.685 186.903C284.986 197.15 288.603 202.274 295.836 202.274ZM292.119 214.028C277.954 214.028 270.921 204.785 270.921 186.501C270.921 168.82 279.159 159.98 295.635 159.678C312.211 159.578 320.549 167.414 320.549 183.387V214.832C320.549 228.193 312.111 234.924 295.133 235.225C283.077 235.225 275.442 229.599 272.328 218.348H287.096C288 222.165 291.114 223.974 296.64 223.974C303.672 223.974 307.288 219.855 307.288 211.617C307.288 211.617 307.288 211.717 307.288 206.192C303.873 211.416 298.749 214.028 292.119 214.028Z" fill="#FFF8F0"/>
<path d="M329.345 222.467H333.062C340.396 222.467 343.008 218.85 340.898 211.818L322.815 159.879H337.985L348.533 196.748L357.776 164.601C358.579 161.487 360.689 159.879 364.105 159.879H373.448L352.451 222.065C349.237 230.805 346.022 233.819 334.971 233.819C331.555 233.819 329.747 233.718 329.345 233.417V222.467Z" fill="#FFF8F0"/>
<path d="M395.385 203.178C402.819 203.178 407.34 198.758 407.34 191.223V186.3C404.226 187.606 400.609 188.712 396.691 189.515C391.367 190.52 388.654 193.031 388.654 196.949C388.956 201.169 391.166 203.178 395.385 203.178ZM398.5 170.026C393.778 170.026 391.166 171.231 390.463 173.743H377.101C378.709 163.898 385.64 159.075 397.897 159.075C412.564 159.075 419.998 163.898 420.3 173.743V191.826C420.3 206.493 411.459 213.023 397.093 214.028C384.334 215.032 375.494 209.105 375.494 197.351C375.795 184.593 385.038 181.177 398.5 179.871C404.226 179.168 407.139 177.46 407.139 174.547C406.838 171.533 404.025 170.026 398.5 170.026Z" fill="#FFF8F0"/>
<path d="M26.7128 260.831V269.85C27.3911 268.524 28.3624 267.475 29.6265 266.705C30.9215 265.903 32.4785 265.502 34.2977 265.502C36.1785 265.502 37.8434 265.965 39.2926 266.89C40.7417 267.784 41.8671 269.032 42.6687 270.636C43.4704 272.208 43.8712 274.012 43.8712 276.047C43.8712 278.236 43.455 280.132 42.6225 281.736C41.79 283.308 40.6492 284.526 39.2001 285.389C37.7509 286.222 36.1014 286.638 34.2514 286.638C33.1414 286.638 32.1548 286.53 31.2915 286.314V282.476C31.754 282.599 32.3244 282.661 33.0027 282.661C34.7293 282.661 36.1476 282.09 37.2576 280.949C38.3984 279.778 38.9688 278.174 38.9688 276.139C38.9688 274.228 38.383 272.671 37.2113 271.468C36.0705 270.266 34.6214 269.665 32.8639 269.665C30.829 269.665 29.2874 270.343 28.239 271.7C27.2216 273.056 26.7128 274.675 26.7128 276.556V290.985H22.0417V282.522C21.3325 283.848 20.2996 284.911 18.943 285.713C17.5864 286.515 15.9522 286.915 14.0406 286.915C12.129 286.915 10.4332 286.468 8.95321 285.574C7.47324 284.68 6.31702 283.431 5.48454 281.828C4.68289 280.194 4.28206 278.298 4.28206 276.139C4.28206 274.012 4.6983 272.147 5.53079 270.543C6.36327 268.94 7.53491 267.707 9.04571 266.843C10.5565 265.949 12.2831 265.502 14.2256 265.502C16.0756 265.502 17.6634 265.888 18.9892 266.658C20.3151 267.429 21.3325 268.462 22.0417 269.757V260.831H0.165903V256.761H47.9411V260.831H26.7128ZM15.6131 282.846C17.0005 282.846 18.1722 282.522 19.128 281.874C20.1146 281.227 20.8392 280.394 21.3017 279.377C21.795 278.359 22.0417 277.311 22.0417 276.232C22.0417 274.474 21.4867 272.948 20.3767 271.653C19.2667 270.327 17.6789 269.665 15.6131 269.665C13.7939 269.665 12.2677 270.266 11.0344 271.468C9.80111 272.64 9.18446 274.212 9.18446 276.186C9.18446 278.221 9.78569 279.839 10.9882 281.042C12.1906 282.244 13.7323 282.846 15.6131 282.846ZM29.1843 305.045C27.951 305.477 26.5327 305.693 24.9294 305.693C22.3702 305.693 20.1965 305.03 18.4082 303.704C16.6199 302.378 15.7258 300.343 15.7258 297.599C15.7258 295.194 16.5429 293.252 18.177 291.772C19.7803 290.292 22.0002 289.552 24.8369 289.552C25.8543 289.552 26.4864 289.567 26.7331 289.598V292.928H25.2068C23.696 292.928 22.5244 293.344 21.6919 294.177C20.8286 295.04 20.3969 296.119 20.3969 297.414C20.3969 298.925 20.8903 300.019 21.8769 300.698C22.8636 301.407 24.1277 301.761 25.6693 301.761C26.9335 301.761 28.1051 301.592 29.1843 301.253V305.045ZM78.9894 260.831H73.347V290.985H68.5833V279.053C67.8125 280.225 66.7796 281.134 65.4847 281.782C64.2205 282.398 62.6943 282.707 60.906 282.707C57.5761 282.707 55.017 281.628 53.2287 279.469C51.4712 277.311 50.5925 274.413 50.5925 270.775V260.831H45.7826V256.761H78.9894V260.831ZM68.5833 260.831H55.3561L68.5833 271.052V260.831ZM61.8772 278.591C63.4497 278.591 64.7755 278.221 65.8547 277.481C66.9338 276.71 67.6892 275.692 68.1209 274.428L55.2636 264.485V270.913C55.2636 273.318 55.8186 275.199 56.9286 276.556C58.0386 277.912 59.6881 278.591 61.8772 278.591ZM92.9067 256.761V260.831H87.2643V290.985H82.4082V260.831H76.7658V256.761H82.5469V254.865C82.5469 253.077 82.2078 251.581 81.5294 250.379C80.8511 249.145 79.6487 248.529 77.922 248.529C76.1954 248.529 74.9775 249.145 74.2684 250.379C73.5592 251.581 73.2046 253.077 73.2046 254.865V257.871H68.4872V255.096C68.4872 251.859 69.2426 249.284 70.7534 247.373C72.2642 245.43 74.6538 244.459 77.922 244.459C81.252 244.459 83.6415 245.415 85.0906 247.326C86.5398 249.238 87.2643 251.828 87.2643 255.096V256.761H92.9067ZM142.002 260.831H136.36V290.985H131.504V273.827H123.78V277.018C123.78 280.163 123.009 282.599 121.468 284.325C119.957 286.021 117.768 286.869 114.9 286.869C112.187 286.869 110.013 286.083 108.379 284.51C106.745 282.938 105.928 280.872 105.928 278.313C105.928 275.631 106.791 273.549 108.518 272.07C110.275 270.59 112.526 269.85 115.27 269.85H119.248V260.831H102.691V256.761H142.002V260.831ZM131.504 260.831H123.78V269.85H131.504V260.831ZM119.248 273.827H115.409C113.929 273.827 112.727 274.228 111.802 275.029C110.877 275.831 110.414 276.926 110.414 278.313C110.414 279.67 110.83 280.749 111.663 281.551C112.495 282.352 113.559 282.753 114.854 282.753C116.241 282.753 117.321 282.275 118.091 281.319C118.862 280.333 119.248 278.976 119.248 277.249V273.827ZM134.359 304.86C133.958 304.891 133.372 304.906 132.601 304.906C130.289 304.906 128.377 304.259 126.866 302.964C125.356 301.669 124.6 299.834 124.6 297.46C124.6 295.055 125.448 293.144 127.144 291.725C128.84 290.307 131.06 289.598 133.804 289.598C137.689 289.598 140.587 290.816 142.499 293.252C144.41 295.687 145.366 298.863 145.366 302.779C145.366 303.611 145.351 304.228 145.32 304.629H141.342V302.455C141.342 299.526 140.68 297.26 139.354 295.657C137.997 294.053 136.147 293.252 133.804 293.252C132.231 293.252 130.967 293.622 130.011 294.362C129.025 295.132 128.531 296.181 128.531 297.506C128.531 298.709 128.948 299.649 129.78 300.328C130.613 301.037 131.646 301.391 132.879 301.391C133.126 301.391 133.619 301.361 134.359 301.299V304.86ZM173.254 260.831V266.566C175.289 267.183 176.892 268.385 178.064 270.173C179.267 271.962 179.868 274.197 179.868 276.879C179.868 279.099 179.436 281.073 178.573 282.799C177.71 284.526 176.43 285.883 174.734 286.869C173.038 287.856 170.988 288.349 168.583 288.349C168.336 288.349 167.812 288.318 167.011 288.257V284.002L168.306 284.094C170.402 284.094 172.036 283.447 173.208 282.152C174.38 280.857 174.965 279.13 174.965 276.972C174.965 275.029 174.488 273.457 173.532 272.255C172.576 271.021 171.235 270.405 169.508 270.405C167.658 270.405 166.255 271.098 165.299 272.486C164.374 273.842 163.912 275.677 163.912 277.989V278.822H159.842V277.989C159.842 275.708 159.395 273.873 158.501 272.486C157.607 271.098 156.265 270.405 154.477 270.405C152.689 270.405 151.301 271.006 150.315 272.208C149.328 273.411 148.835 274.999 148.835 276.972C148.835 279.13 149.421 280.857 150.592 282.152C151.764 283.447 153.398 284.094 155.495 284.094L156.79 284.002V288.257C155.988 288.318 155.464 288.349 155.217 288.349C152.812 288.349 150.762 287.856 149.066 286.869C147.37 285.883 146.091 284.526 145.227 282.799C144.364 281.073 143.932 279.099 143.932 276.879C143.932 274.629 144.349 272.702 145.181 271.098C146.044 269.495 147.216 268.277 148.696 267.445C150.207 266.581 151.918 266.15 153.83 266.15C156.019 266.15 157.761 266.751 159.056 267.953C160.382 269.125 161.307 270.605 161.831 272.393H161.969C162.432 270.852 163.187 269.526 164.236 268.416C165.315 267.306 166.733 266.597 168.491 266.288V260.831H139.816V256.761H183.938V260.831H173.254ZM173.85 249.592C173.85 250.456 173.557 251.18 172.971 251.766C172.385 252.352 171.661 252.645 170.797 252.645C169.934 252.645 169.209 252.352 168.624 251.766C168.007 251.18 167.699 250.456 167.699 249.592C167.699 248.729 168.007 248.005 168.624 247.419C169.209 246.833 169.934 246.54 170.797 246.54C171.661 246.54 172.385 246.833 172.971 247.419C173.557 248.005 173.85 248.729 173.85 249.592ZM235.135 260.831H229.493V290.985H224.636V272.208H216.867V275.723C216.867 278.591 216.019 280.918 214.323 282.707C212.627 284.464 210.33 285.343 207.432 285.343C204.472 285.343 202.159 284.464 200.495 282.707C198.86 280.949 198.043 278.621 198.043 275.723V268.046H202.946V275.631C202.946 277.296 203.347 278.621 204.148 279.608C204.95 280.595 206.06 281.088 207.478 281.088C208.927 281.088 210.068 280.595 210.901 279.608C211.733 278.621 212.149 277.296 212.149 275.631V268.046H224.636V260.831H193.788V256.761H235.135V260.831ZM270.502 256.761V260.831H264.859V290.985H260.049V260.831H252.511V272.717C252.511 275.276 251.833 277.357 250.476 278.961C249.15 280.564 247.115 281.366 244.371 281.366C241.689 281.366 239.623 280.626 238.174 279.146C236.755 277.635 236.046 275.584 236.046 272.994C236.046 272.347 236.062 271.869 236.093 271.561H240.81V272.994C240.81 274.197 241.072 275.199 241.596 276.001C242.151 276.802 243.03 277.203 244.232 277.203C245.496 277.203 246.375 276.802 246.869 276.001C247.393 275.168 247.655 274.135 247.655 272.902V260.831H232.901V256.761H270.502ZM302.812 260.831H297.17V290.985H292.314V272.208H285.839C283.188 272.208 281.106 272.84 279.595 274.104C278.085 275.369 277.329 277.203 277.329 279.608C277.329 281.951 277.992 283.786 279.318 285.112C280.675 286.407 282.617 287.054 285.145 287.054H286.117V290.893H284.452C280.813 290.893 277.9 289.937 275.711 288.025C273.521 286.083 272.427 283.246 272.427 279.516C272.427 275.692 273.629 272.825 276.034 270.913C278.439 269.002 281.63 268.046 285.608 268.046H292.314V260.831H268.311V256.761H302.812V260.831ZM298.199 303.241L292.464 293.714H297.32L303.194 303.241H298.199ZM352.854 260.831H347.166V290.985H342.356V275.492H322.052V281.597C322.052 283.293 322.438 284.665 323.209 285.713C324.01 286.73 325.182 287.239 326.724 287.239C328.173 287.239 329.298 286.777 330.1 285.852C330.932 284.896 331.348 283.632 331.348 282.059V281.504H336.02C336.05 281.72 336.066 281.982 336.066 282.291C336.066 285.096 335.233 287.316 333.568 288.95C331.934 290.585 329.684 291.402 326.816 291.402C323.764 291.402 321.405 290.477 319.74 288.627C318.106 286.777 317.289 284.356 317.289 281.366V271.977H321.312C323.841 271.977 325.722 271.33 326.955 270.035C328.219 268.74 328.851 266.967 328.851 264.716V260.831H312.618V256.761H352.854V260.831ZM342.356 260.831H333.661V264.716C333.661 267.46 332.921 269.726 331.441 271.515H342.356V260.831ZM383.946 256.761V260.831H378.303V290.985H373.586V282.614C372.784 283.971 371.674 285.05 370.256 285.852C368.869 286.623 367.204 287.008 365.261 287.008C363.165 287.008 361.315 286.545 359.711 285.62C358.139 284.695 356.921 283.401 356.058 281.736C355.194 280.071 354.763 278.159 354.763 276.001C354.763 273.935 355.194 272.1 356.058 270.497C356.952 268.863 358.185 267.599 359.758 266.705C361.361 265.78 363.195 265.317 365.261 265.317C367.173 265.317 368.838 265.703 370.256 266.473C371.674 267.244 372.784 268.308 373.586 269.665V260.831H350.647V256.761H383.946ZM366.51 283.123C368.052 283.123 369.347 282.784 370.395 282.106C371.474 281.427 372.276 280.564 372.8 279.516C373.324 278.467 373.586 277.373 373.586 276.232V276.186C373.586 275.014 373.324 273.904 372.8 272.856C372.276 271.777 371.474 270.913 370.395 270.266C369.347 269.587 368.052 269.248 366.51 269.248C364.506 269.248 362.841 269.88 361.515 271.145C360.189 272.409 359.526 274.074 359.526 276.139C359.526 278.267 360.174 279.963 361.469 281.227C362.795 282.491 364.475 283.123 366.51 283.123ZM373.765 257.594V253.477C373.765 250.733 374.428 248.513 375.754 246.818C377.049 245.091 379.099 244.228 381.905 244.228C384.464 244.228 386.438 244.983 387.825 246.494C389.212 248.005 389.86 250.009 389.767 252.506H385.513C385.574 251.242 385.281 250.225 384.634 249.454C383.986 248.683 383.108 248.298 381.998 248.298C379.531 248.298 378.298 250.009 378.298 253.431V257.594H373.765ZM421.032 260.831H415.389V290.985H410.533V273.827H402.81V277.018C402.81 280.163 402.039 282.599 400.497 284.325C398.986 286.021 396.797 286.869 393.93 286.869C391.217 286.869 389.043 286.083 387.409 284.51C385.775 282.938 384.958 280.872 384.958 278.313C384.958 275.631 385.821 273.549 387.548 272.07C389.305 270.59 391.556 269.85 394.3 269.85H398.277V260.831H381.72V256.761H421.032V260.831ZM410.533 260.831H402.81V269.85H410.533V260.831ZM398.277 273.827H394.439C392.959 273.827 391.756 274.228 390.831 275.029C389.906 275.831 389.444 276.926 389.444 278.313C389.444 279.67 389.86 280.749 390.692 281.551C391.525 282.352 392.589 282.753 393.884 282.753C395.271 282.753 396.35 282.275 397.121 281.319C397.892 280.333 398.277 278.976 398.277 277.249V273.827ZM416.441 303.241L410.706 293.714H415.562L421.436 303.241H416.441Z" fill="#FFF8F0"/>
<path d="M280.463 69.6225V136.659C280.463 138.478 278.991 139.95 277.173 139.95H250.129C248.311 139.95 246.839 138.478 246.839 136.659V69.8965C246.839 50.1074 230.794 34.063 211.002 34.063C202.879 34.063 178.504 34.063 178.504 34.063C177.759 34.063 177.306 34.8795 177.699 35.5133C184.211 46.0306 194.914 65.6536 219.734 79.9018C197.488 75.9135 184.681 67.7571 176.151 60.3119C175.537 59.7778 174.582 60.2151 174.582 61.0288V70.4888C174.582 90.2807 190.627 106.322 210.416 106.322H237.099C238.917 106.322 240.39 107.795 240.39 109.613V136.659C240.39 138.478 238.917 139.95 237.099 139.95H210.142C171.928 139.95 140.952 108.971 140.952 70.76V3.72342C140.952 1.90504 142.424 0.432617 144.243 0.432617H211.276C249.49 0.432617 280.466 31.4116 280.466 69.6225H280.463Z" fill="#FFF8F0"/>
</svg>
